<svg width="71" height="85" viewBox="0 0 71 85" fill="none" xmlns="http://www.w3.org/2000/svg">
<path fill-rule="evenodd" clip-rule="evenodd" d="M29.7773 29.3839L22 38.25L34.5 81L47 38.25L39.3223 29.4975L34.6066 34.2132L29.7773 29.3839Z" fill="white"/>
<path fill-rule="evenodd" clip-rule="evenodd" d="M35 11L45.6066 21.6066L39.2132 28H30.7868L24.3934 21.6066L35 11Z" fill="white"/>
<path d="M1.5 32L11 35.5L23.9207 82.1406L1.5 32Z" fill="white"/>
<path d="M69.147 32L59.647 35.5L46.7263 82.1406L69.147 32Z" fill="white"/>
<path d="M8.65686 39.6372L1.5 32L31 -1.65068e-06L8.65686 39.6372Z" fill="white"/>
<path d="M61.9902 39.6372L69.147 32L39.647 -1.65068e-06L61.9902 39.6372Z" fill="white"/>
</svg>
